<?xml version="1.0" encoding="utf-8"?>
<!-- Generator: Adobe Illustrator 21.1.0, SVG Export Plug-In . SVG Version: 6.00 Build 0)  -->
<svg version="1.1" id="Layer_1" xmlns="http://www.w3.org/2000/svg" xmlns:xlink="http://www.w3.org/1999/xlink" x="0px" y="0px"
	 viewBox="0 0 85 80" style="enable-background:new 0 0 85 80;" xml:space="preserve">
<g>
	<path d="M79.5,11.2H63.7V4.4c0-0.8-0.7-1.5-1.5-1.5s-1.5,0.7-1.5,1.5v6.8H22.2V4.4c0-0.8-0.7-1.5-1.5-1.5s-1.5,0.7-1.5,1.5v6.8H5.1
		c-0.8,0-1.5,0.7-1.5,1.5v62.4c0,0.8,0.7,1.5,1.5,1.5h74.4c0.8,0,1.5-0.7,1.5-1.5V12.7C81,11.9,80.4,11.2,79.5,11.2z M78,73.7H6.6
		V14.2h12.6v4.5c0,0.8,0.7,1.5,1.5,1.5s1.5-0.7,1.5-1.5v-4.5h38.5v4.5c0,0.8,0.7,1.5,1.5,1.5s1.5-0.7,1.5-1.5v-4.5H78V73.7z"/>
	<path d="M63.2,54.1l-5.1-5.1c-0.6-0.6-1.5-0.6-2.1,0c-0.6,0.6-0.6,1.5,0,2.1l5.1,5.1L56,61.3c-0.6,0.6-0.6,1.5,0,2.1
		c0.3,0.3,0.7,0.4,1.1,0.4s0.8-0.1,1.1-0.4l5.1-5.1l5.1,5.1c0.3,0.3,0.7,0.4,1.1,0.4s0.8-0.1,1.1-0.4c0.6-0.6,0.6-1.5,0-2.1
		l-5.1-5.1l5.1-5.1c0.6-0.6,0.6-1.5,0-2.1c-0.6-0.6-1.5-0.6-2.1,0L63.2,54.1z"/>
	<path d="M26.3,28.4H17c-0.8,0-1.5,0.7-1.5,1.5v9.2c0,0.8,0.7,1.5,1.5,1.5h9.2c0.8,0,1.5-0.7,1.5-1.5v-9.2
		C27.8,29,27.1,28.4,26.3,28.4z M24.8,37.6h-6.2v-6.2h6.2V37.6z"/>
	<path d="M47.3,28.4h-9.2c-0.8,0-1.5,0.7-1.5,1.5v9.2c0,0.8,0.7,1.5,1.5,1.5h9.2c0.8,0,1.5-0.7,1.5-1.5v-9.2
		C48.8,29,48.2,28.4,47.3,28.4z M45.8,37.6h-6.2v-6.2h6.2V37.6z"/>
	<path d="M26.3,49.6H17c-0.8,0-1.5,0.7-1.5,1.5v9.2c0,0.8,0.7,1.5,1.5,1.5h9.2c0.8,0,1.5-0.7,1.5-1.5v-9.2
		C27.8,50.3,27.1,49.6,26.3,49.6z M24.8,58.9h-6.2v-6.2h6.2V58.9z"/>
	<path d="M47.3,49.6h-9.2c-0.8,0-1.5,0.7-1.5,1.5v9.2c0,0.8,0.7,1.5,1.5,1.5h9.2c0.8,0,1.5-0.7,1.5-1.5v-9.2
		C48.8,50.3,48.2,49.6,47.3,49.6z M45.8,58.9h-6.2v-6.2h6.2V58.9z"/>
	<path d="M58.2,28.4c-0.8,0-1.5,0.7-1.5,1.5v9.2c0,0.8,0.7,1.5,1.5,1.5h9.2c0.8,0,1.5-0.7,1.5-1.5v-9.2c0-0.8-0.7-1.5-1.5-1.5
		L58.2,28.4z M65.9,37.6h-6.2v-6.2h6.2V37.6z"/>
</g>
</svg>
