<svg xmlns="http://www.w3.org/2000/svg" xmlns:xlink="http://www.w3.org/1999/xlink" viewBox="0 0 685.02 757.2"><defs><style>.cls-1{fill:none;}.cls-2{isolation:isolate;}.cls-3{fill:#61116a;}.cls-4{fill:#fafafa;}.cls-5,.cls-8{fill:#d1d3d4;}.cls-5{opacity:0.3;}.cls-15,.cls-19,.cls-5,.cls-7,.cls-8{mix-blend-mode:multiply;}.cls-6,.cls-7{fill:#eb3386;}.cls-7{opacity:0.2;}.cls-9{fill:#fff;}.cls-10{fill:url(#linear-gradient);}.cls-11{fill:url(#linear-gradient-2);}.cls-12{fill:#e6e7e8;}.cls-13{clip-path:url(#clip-path);}.cls-14{fill:#23068a;}.cls-15{fill:#808bfe;}.cls-16{clip-path:url(#clip-path-2);}.cls-17{fill:#f2f2f2;}.cls-18,.cls-19{fill:#c035a0;}.cls-19{opacity:0.4;}</style><linearGradient id="linear-gradient" x1="298.87" y1="38.57" x2="364.29" y2="38.57" gradientUnits="userSpaceOnUse"><stop offset="0" stop-color="#23068a"/><stop offset="1" stop-color="#c035a0"/></linearGradient><linearGradient id="linear-gradient-2" x1="211.45" y1="46.98" x2="265.71" y2="46.98" xlink:href="#linear-gradient"/><clipPath id="clip-path" transform="translate(89.48 129.34)"><path class="cls-1" d="M305.14,64.29s21.33-12.78,29.09-14.68a83.83,83.83,0,0,1,19.07-2.18s-20.57,23.93-48.16,16.86"/></clipPath><clipPath id="clip-path-2" transform="translate(89.48 129.34)"><path class="cls-1" d="M264.27,64.46s-21.51-9.86-29.09-10.82a80.25,80.25,0,0,0-18.4,0s21.79,20.59,47.49,10.81"/></clipPath></defs><title>dancer</title><g class="cls-2"><g id="Layer_1" data-name="Layer 1"><path class="cls-3" d="M224.75,627.86h90.48c158.38-22,280.31-158,280.31-322.4C595.54,125.67,449.78-20.08,270-20.08S-55.55,125.67-55.55,305.46C-55.55,469.9,66.38,605.84,224.75,627.86Z" transform="translate(89.48 129.34)"/><path class="cls-4" d="M99.82,627.86a236,236,0,0,0,39.51-55.1c17.44,3.17,17.79,30.62,14.46,55.1h418C594.71,535.7,583,311,564,255c-20.89-61.58-143.44-33.7-157.49-52.56-13.91-18.68-20.77-83.76-20.77-83.76l-153.26-3C266.67,289,161.05,278.82,97.33,319.67,39.17,357-96.28,549.12-89.22,627.86Z" transform="translate(89.48 129.34)"/><polyline class="cls-5" points="268.68 478.34 250.04 745.65 301.48 568.34 268.68 474.34"/><path class="cls-5" d="M196.77,271l9.27-7.45s24.86,97.59,115.75,128.84-49.12,22.34-49.12,22.34L179.2,279.51Z" transform="translate(89.48 129.34)"/><path class="cls-5" d="M492.83,213.72S444.73,515.78,445.33,541s-28-5.33-28-5.33l49-324.13" transform="translate(89.48 129.34)"/><path class="cls-6" d="M196,269s46.25,127.33,120.25,124S442,210.89,442,210.89l32.5.42S451.74,423.91,446,469c-7,55,7.33,157,7.33,157H158s35.47-128.33,29-206c-8-96-23-131-23-131Z" transform="translate(89.48 129.34)"/><path class="cls-7" d="M196,269s46.25,127.33,120.25,124S442,210.89,442,210.89l32.5.42s-23.72,222-29.46,267.11c-7,55,8.29,147.59,8.29,147.59H185s35.47-128.33,29-206c-8-96-34.82-140.47-34.82-140.47Z" transform="translate(89.48 129.34)"/><path class="cls-8" d="M398,68.65s-3.8,49.85-6.92,63.68c-8.81,39.1-43,75.84-54.39,84C308.46,236.56,251,228,228,115.61,207.91,17.23,398,68.65,398,68.65Z" transform="translate(89.48 129.34)"/><path class="cls-9" d="M202.16,50.66c-3.54-14.86-1.84-76,22.49-106.31C260-99.73,340.73-109.44,386.29-67.1,420.8-35,404,35.52,402,50.66a556.42,556.42,0,0,1-17,79c-3.43,11.52-51.4,74.54-61.1,78.85-9.19,4.08-35.3,4.09-44.18-.65C269,202.21,223.92,142,202.16,50.66Z" transform="translate(89.48 129.34)"/><path class="cls-9" d="M393.23,26.77S395.6,8.31,411.44,6.71c9.61-1,12.1,30.22,9.65,38.09s-15.42,36-30,29.94" transform="translate(89.48 129.34)"/><path class="cls-8" d="M393.45,29.52S403.53,22.57,408,27.9c4,4.82,4.56,28.11-13.73,32.25" transform="translate(89.48 129.34)"/><path class="cls-10" d="M364.29,37.23s-3.66-9.12-11.9-12.89-53.52,24.59-53.52,24.59l.7,4.21s49.33-20.74,53.92-21.47S364.29,37.23,364.29,37.23Z" transform="translate(89.48 129.34)"/><path class="cls-11" d="M211.45,48.93s5.42-6.46,10.64-9.38c7.09-4,43.62,11,43.62,11v4.49s-41.05-11.86-43.43-11.31S211.45,48.93,211.45,48.93Z" transform="translate(89.48 129.34)"/><path class="cls-8" d="M261.48,152.26s8.44,4.54,22.32,4.53c8.49,0,33.8-3.43,33.8-3.43s-21-14.2-29.06-8.38c-9.09,6.55-10.56-8.66-27.06,7.28" transform="translate(89.48 129.34)"/><path class="cls-8" d="M261.48,152.26s5.94,16.1,18.33,18c22,3.3,31.77-4.76,37.78-16.86,0,0-24.19-2.11-32.28-2.2C279.35,151.09,261.48,152.26,261.48,152.26Z" transform="translate(89.48 129.34)"/><path class="cls-12" d="M305.14,64.29s21.33-12.78,29.09-14.68a83.83,83.83,0,0,1,19.07-2.18s-20.57,23.93-48.16,16.86" transform="translate(89.48 129.34)"/><g class="cls-13"><ellipse class="cls-14" cx="420.46" cy="184.18" rx="7.39" ry="8.15"/><path class="cls-15" d="M307.12,64.75S335.85,51.48,350,50.87s1.79-8.3,1.79-8.3L313.86,56.75,302.45,65.6Z" transform="translate(89.48 129.34)"/></g><path class="cls-12" d="M264.27,64.46s-21.51-9.86-29.09-10.82a80.25,80.25,0,0,0-18.4,0s21.79,20.59,47.49,10.81" transform="translate(89.48 129.34)"/><g class="cls-16"><path class="cls-14" d="M235,59c.41,4.3,3.89,7.42,7.79,7s6.73-4.29,6.32-8.59-3.89-7.42-7.79-7S234.55,54.67,235,59Z" transform="translate(89.48 129.34)"/><path class="cls-15" d="M262.42,65.12s-28.62-9.52-42.19-8.54-2.45-7.73-2.45-7.73l37.49,9.38L267,65.41Z" transform="translate(89.48 129.34)"/></g><path class="cls-8" d="M262.44,116.22c1,1.54,10.47,13.42,23.59,12.91,13.76-.53,22-10.89,24.11-14.61,1.06-1.84,3-8.17,3-8.17.13,3.57-3.33,6.59-7.72,6.74,0,0-13.5,6.57-19.2,6.72-5.5.15-18.71-5.37-18.71-5.37-4.39.16-8.05-2.61-8.18-6.18A26.26,26.26,0,0,0,262.44,116.22Z" transform="translate(89.48 129.34)"/><path class="cls-17" d="M313.12,106.35c0,.24.08.47.1.71s0,.5,0,.75a4.77,4.77,0,0,1-.11.75,5.31,5.31,0,0,1-.22.73,6.21,6.21,0,0,1-.7,1.38,5,5,0,0,1-.47.62,5.41,5.41,0,0,1-.54.58,8,8,0,0,1-1.23,1,4.81,4.81,0,0,1-.68.41,6.4,6.4,0,0,1-.72.35,7.15,7.15,0,0,1-.74.29c-.25.08-.51.18-.77.24a12.58,12.58,0,0,1-1.58.31l.56-.14a91.11,91.11,0,0,1-9.1,4.48c-1.56.66-3.16,1.28-4.81,1.81-.82.27-1.67.51-2.54.72a18.57,18.57,0,0,1-2.77.47l-.38,0H286c-.2,0-.41,0-.7,0-.55,0-1-.08-1.44-.15a26.41,26.41,0,0,1-2.63-.52c-1.7-.42-3.33-.92-4.94-1.49a87.22,87.22,0,0,1-9.36-3.94l.59.11a12.49,12.49,0,0,1-1.6-.19c-.26,0-.52-.12-.78-.18a7.16,7.16,0,0,1-.76-.24,8.47,8.47,0,0,1-2.75-1.57,5.41,5.41,0,0,1-.58-.54,5,5,0,0,1-.52-.59,6.16,6.16,0,0,1-.8-1.33,5.33,5.33,0,0,1-.27-.72,4.74,4.74,0,0,1-.17-.74,5.36,5.36,0,0,1,0-1.47,6.39,6.39,0,0,0,.48,1.32c.12.2.21.4.35.58a4.49,4.49,0,0,0,.4.53,5.53,5.53,0,0,0,1,.89,3.84,3.84,0,0,0,.53.37,4.08,4.08,0,0,0,.56.31,6.19,6.19,0,0,0,1.18.47A7.34,7.34,0,0,0,265,113a5.11,5.11,0,0,0,.62.07,6,6,0,0,0,.62,0,10.09,10.09,0,0,0,1.23-.08l.2,0,.38.13c1.55.52,3.13,1,4.7,1.51s3.15,1,4.72,1.41,3.14.85,4.69,1.19c.78.16,1.54.3,2.29.4.36,0,.77.09,1,.1h1a24.17,24.17,0,0,0,4.44-.94c1.53-.45,3.08-1,4.62-1.5s3.09-1.11,4.63-1.69,3.09-1.18,4.61-1.78l.36-.15h.19a10,10,0,0,0,1.23,0,6,6,0,0,0,.62-.07,5.11,5.11,0,0,0,.61-.12,7.51,7.51,0,0,0,1.2-.37,6.18,6.18,0,0,0,1.14-.55,4.06,4.06,0,0,0,.53-.35,3.83,3.83,0,0,0,.5-.41,5.47,5.47,0,0,0,.89-1,4.5,4.5,0,0,0,.36-.56c.12-.19.2-.4.3-.61s.15-.42.23-.65Z" transform="translate(89.48 129.34)"/><path class="cls-5" d="M398,75.24S348.91,94,346.71,112.12s-21,89.74-33.58,94.56,4.72,6.32,14.34,0c4.58-3,52.66-60.22,58.49-81.43C391.95,103.44,398,75.24,398,75.24Z" transform="translate(89.48 129.34)"/><path class="cls-5" d="M232.27-64s62.64-61.57,141.45-12.56c43,26.74,35.8,80.62,35,91.06s-6.07-49.76-52-81.5C341.54-77.41,292.28-98.44,232.27-64Z" transform="translate(89.48 129.34)"/><path class="cls-18" d="M404.34-44.66c-2.4-40.4-51.66-84.69-102.21-84.69S186.89-106.16,186.39-62.16l-4.5,82.5C200.76,29,347.7,16.1,410.23,3,416.72,1.64,404.34-44.66,404.34-44.66Z" transform="translate(89.48 129.34)"/><path class="cls-19" d="M404.34-44.66c-2.4-40.4-51.66-84.69-102.21-84.69S186.89-106.16,186.39-62.16c0,0,157.11-53.34,220.12,58.16C412.76-6.22,404.34-44.66,404.34-44.66Z" transform="translate(89.48 129.34)"/><path class="cls-18" d="M181.89,20.34,104.31,58.29s13.53,18.85,76.58-8.95,57.33-34.17,57.33-34.17Z" transform="translate(89.48 129.34)"/><path class="cls-19" d="M181.89,20.34,104.31,58.29s13.53,18.85,76.58-8.95,57.33-34.17,57.33-34.17Z" transform="translate(89.48 129.34)"/></g></g></svg>