<?xml version="1.0" encoding="utf-8"?>
<!-- Generator: Adobe Illustrator 21.1.0, SVG Export Plug-In . SVG Version: 6.00 Build 0)  -->
<svg fill="#ffffff" version="1.1" id="Layer_1" xmlns="http://www.w3.org/2000/svg" xmlns:xlink="http://www.w3.org/1999/xlink" x="0px" y="0px"
	 viewBox="0 0 496.7 496.7" style="enable-background:new 0 0 496.7 496.7;" xml:space="preserve">
<path d="M248.3-0.2C111.1-0.2-0.2,111.1-0.2,248.3s111.3,248.5,248.5,248.5s248.5-111.3,248.5-248.5S385.6-0.2,248.3-0.2z
	 M103.8,248.6c0-2,0.4-4,1.1-5.8c-7,4.7-15.4,7.5-24.5,7.5c-24.2,0-43.8-19.6-43.8-43.8c0-24.2,19.6-43.8,43.8-43.8
	s43.8,19.6,43.8,43.8c0,10-3.4,19.3-9.1,26.7c1.5-0.5,3.1-0.7,4.8-0.7c8.9,0,16.2,7.2,16.2,16.2c0,8.9-7.2,16.2-16.2,16.2
	S103.8,257.5,103.8,248.6z M206.2,267.7c-2,0-4-0.4-5.8-1.1c4.7,7,7.5,15.4,7.5,24.5c0,24.2-19.6,43.8-43.8,43.8
	s-43.8-19.6-43.8-43.8c0-24.2,19.6-43.8,43.8-43.8c10,0,19.3,3.4,26.7,9.1c-0.5-1.5-0.7-3.1-0.7-4.8c0-8.9,7.2-16.2,16.2-16.2
	c8.9,0,16.2,7.2,16.2,16.2S215.2,267.7,206.2,267.7z M271.3,248.6c0-2,0.4-4,1.1-5.8c-7,4.7-15.4,7.5-24.5,7.5
	c-24.2,0-43.8-19.6-43.8-43.8c0-24.2,19.6-43.8,43.8-43.8c24.2,0,43.8,19.6,43.8,43.8c0,10-3.4,19.3-9.1,26.7
	c1.5-0.5,3.1-0.7,4.8-0.7c8.9,0,16.2,7.2,16.2,16.2c0,8.9-7.2,16.2-16.2,16.2C278.5,264.7,271.3,257.5,271.3,248.6z M373.8,267.7
	c-2,0-4-0.4-5.8-1.1c4.7,7,7.5,15.4,7.5,24.5c0,24.2-19.6,43.8-43.8,43.8s-43.8-19.6-43.8-43.8c0-24.2,19.6-43.8,43.8-43.8
	c10,0,19.3,3.4,26.7,9.1c-0.5-1.5-0.7-3.1-0.7-4.8c0-8.9,7.2-16.2,16.2-16.2c8.9,0,16.2,7.2,16.2,16.2S382.7,267.7,373.8,267.7z
	 M415.9,250.3c-24.4,0-44.2-19.8-44.2-44.2c0-24.4,19.8-44.2,44.2-44.2c24.4,0,44.2,19.8,44.2,44.2
	C460.1,230.5,440.3,250.3,415.9,250.3z"/>
</svg>
