<?xml version="1.0" encoding="utf-8"?>
<!-- Generator: Adobe Illustrator 21.1.0, SVG Export Plug-In . SVG Version: 6.00 Build 0)  -->
<svg version="1.1" id="Layer_1" xmlns="http://www.w3.org/2000/svg" xmlns:xlink="http://www.w3.org/1999/xlink" x="0px" y="0px"
	 viewBox="0 0 85 80" style="enable-background:new 0 0 85 80;" xml:space="preserve">
<path d="M58.1,44.3c-1.9-3.4-3.6-6.9-3.5-10.7c0.1-3.3,1.8-6.3,2.7-8.9c0.7-1.3,1.1-2.9,1.1-4.5V15h-32v5.2c0,1.7,0.4,3.2,1.1,4.5
	c0.9,2.5,2.6,5.6,2.7,8.9c0.1,3.8-1.5,7.3-3.5,10.7c-3.5,6.1-3.4,14.6-3.4,19.6c0,0.6,0,1.1,0,1.6V67h38v-1.5c0-0.5,0-1,0-1.6
	C61.6,58.9,61.7,50.4,58.1,44.3z"/>
<g>
	<g>
		<path d="M82,21h-9.3l3.4-3.4c0.6-0.6,0.6-1.5,0-2.1c-0.6-0.6-1.5-0.6-2.1,0l-6,6c-0.6,0.6-0.6,1.5,0,2.1l6,6
			c0.6,0.6,1.5,0.6,2.1,0s0.6-1.5,0-2.1L72.7,24H82c0.8,0,1.5-0.7,1.5-1.5S82.8,21,82,21z"/>
	</g>
</g>
<g>
	<g>
		<path d="M16.9,21.5l-6-6c-0.6-0.6-1.5-0.6-2.1,0c-0.6,0.6-0.6,1.5,0,2.1l3.4,3.4H3c-0.8,0-1.5,0.7-1.5,1.5S2.2,24,3,24h9.3
			l-3.4,3.4c-0.6,0.6-0.6,1.5,0,2.1s1.5,0.6,2.1,0l6-6C17.5,23,17.5,22,16.9,21.5z"/>
	</g>
</g>
</svg>
