<?xml version="1.0" encoding="utf-8"?>
<!-- Generator: Adobe Illustrator 21.1.0, SVG Export Plug-In . SVG Version: 6.00 Build 0)  -->
<svg version="1.1" id="Layer_1" xmlns="http://www.w3.org/2000/svg" xmlns:xlink="http://www.w3.org/1999/xlink" x="0px" y="0px"
	 viewBox="0 0 85 80" style="enable-background:new 0 0 85 80;" xml:space="preserve">
<g>
	<path d="M76.3,40.5c-1.1-1-2.8-0.9-3.8,0.2L66,48.1c-0.1-0.1-0.2-0.2-0.4-0.2c-0.7-0.4-1.4-0.9-2.3-1.3l5.7-6.3
		c1-1.1,0.9-2.8-0.2-3.8c-1.1-1-2.8-0.9-3.8,0.2l-6.9,7.6c-1-0.4-2-0.7-3.1-1.1l4-5.4c0.9-1.2,0.6-2.9-0.5-3.7
		c-1.2-0.9-2.9-0.6-3.7,0.5l-5.3,7.1c-1.1-0.2-2.1-0.4-3.3-0.5l2.9-4.2c0.8-1.2,0.6-2.9-0.6-3.7c-1.2-0.8-2.9-0.6-3.7,0.6l-4.8,6.9
		c-1,0-1.9,0.1-2.9,0.2l1.8-3.4c0.7-1.3,0.2-2.9-1.1-3.6c-1.3-0.7-2.9-0.2-3.6,1.1l-3.9,7.1c0,0.1-0.1,0.1-0.1,0.2
		c-3.8,1.2-7,2.8-9.5,4.2c-2.7,1.6-4.7,3.1-5.9,4.1c-2.6,2.1-3,3-3,4.1c0,1.1,0.5,2.1,3,4.2c1.2,1,3.2,2.5,5.9,4.1
		c4.5,2.6,11.5,5.7,19.6,5.7c8.3,0,15.4-4,19.9-7.3c2.8-2,4.7-4,5.9-5.2c1.4-1.5,2.1-2.5,2.4-3.2l8-8.9
		C77.5,43.2,77.4,41.5,76.3,40.5z M18.2,54.9c2-1.7,5.8-4.4,10.7-6.4c-1,1.9-1.6,4-1.6,6.3c0,2.3,0.6,4.5,1.7,6.4
		c-1.7-0.7-3.3-1.4-4.6-2.2C21.6,57.6,19.5,56,18.2,54.9z M52.2,60.4c0.8-1.7,1.2-3.5,1.2-5.5c0-2.7-0.8-5.2-2.2-7.3
		c5.3,1.4,9.4,3.4,11.4,4.7C60.9,54.2,57.2,57.8,52.2,60.4z"/>
	<path d="M80.7,33.8c-1-2.1-2.2-4.1-3.5-6c-3-4.4-6.4-8-9.9-10.8c-5.6-4.5-11.5-6.8-17.4-6.8c-5.1,0-16.1,3.8-22.2,6.1
		c-8.6,3.2-17.5,7-21.2,9.2C4.2,26.7,3,28.7,3,30.8c0,3.3,2.7,5.9,6.1,5.9c0.6,0,1.3,0,2-0.3c0.1,0,0.2-0.1,1-0.5
		C31.5,26.1,45,20.6,50.2,20.6c9.9,0,15.8,3.9,22.6,10.8c1.5,1.5,2.8,3,4,4.7c0.4,0.6,1.1,0.9,1.8,0.9c0.4,0,0.8-0.1,1.1-0.3
		C80.8,36.1,81.2,34.9,80.7,33.8z"/>
</g>
</svg>
