<?xml version="1.0" encoding="utf-8"?>
<!-- Generator: Adobe Illustrator 21.1.0, SVG Export Plug-In . SVG Version: 6.00 Build 0)  -->
<svg version="1.1" id="Capa_1" xmlns="http://www.w3.org/2000/svg" xmlns:xlink="http://www.w3.org/1999/xlink" x="0px" y="0px"
	 viewBox="0 0 512 512" style="enable-background:new 0 0 512 512;" xml:space="preserve">
<style type="text/css">
	.st0{fill:#FF3088;}
	.st1{opacity:0.5;fill:#FFFFFF;}
	.st2{opacity:0.5;fill:#FFFFFF;enable-background:new    ;}
</style>
<path class="st0" d="M447.3,304.8l-0.4-5c-5.9-76.4-41.4-124.2-72.8-166.4C345.1,94.3,320,60.5,320,10.7c0-4-2.2-7.7-5.8-9.5
	c-3.6-1.8-7.8-1.5-11.1,0.8C256,35.7,216.7,92.5,203,146.7c-9.5,37.7-10.8,80.2-11,108.2c-43.5-9.3-53.4-74.4-53.5-75.1
	c-0.5-3.4-2.6-6.3-5.6-7.9c-3-1.6-6.6-1.7-9.7-0.2c-2.3,1.1-56,28.4-59.1,137.4C64,312.8,64,316.4,64,320c0,105.9,86.1,192,192,192
	s192-86.1,192-192C448,314.7,447.6,309.7,447.3,304.8z"/>
<path class="st1" d="M188.7,422.5c0-1.3,0-2.6,0.1-4.2c0.4-15.9,3.4-26.7,6.7-33.9c6.2,13.3,17.3,25.5,35.2,25.5
	c5.9,0,10.7-4.8,10.7-10.7c0-15.2,0.3-32.7,4.1-48.5c3.4-14,11.4-28.9,21.6-40.9c4.5,15.5,13.4,28.1,22,40.3
	c12.3,17.5,25.1,35.7,27.3,66.6c0.1,1.8,0.3,3.7,0.3,5.7c0,37.6-28.7,68.2-64,68.2S188.7,460.1,188.7,422.5z"/>
<path class="st2" d="M121.2,253.8c9.3,26.9,33.7,62.2,81.5,62.2c5.9,0,10.7-3.9,10.7-8.6c0-28.9,0.8-62.2,10.3-92.7
	c10.8-34.6,40.5-71.9,76.3-97.2c5.9,36.9,30.8,64,57,92.5c31,33.8,63.1,68.7,68.6,125.1c0.4-4.8,1.1-9.6,1.1-14.6
	c0-4.8-0.3-9.2-0.7-13.6l-0.4-5.1c-5.4-70.1-37.5-113.4-68.6-155.2c-26.2-35.2-51-68.7-57-114.4c-35.8,31.3-65.5,77.5-76.3,120.3
	c-9.5,37.8-10.3,79-10.3,114.7c0,5.9-4.8,10.7-10.7,10.7c-47.8,0-72.2-43.6-81.5-76.9c-13.4,14-33.8,45.7-35.6,109.6
	c-0.2,3.6-0.2,6.7-0.2,9.9c0,4.4,0.6,8.6,1,12.8C90.1,287.8,108.7,264.3,121.2,253.8z"/>
</svg>
