<?xml version="1.0" encoding="utf-8"?>
<!-- Generator: Adobe Illustrator 21.1.0, SVG Export Plug-In . SVG Version: 6.00 Build 0)  -->
<svg version="1.1" id="Layer_1" xmlns="http://www.w3.org/2000/svg" xmlns:xlink="http://www.w3.org/1999/xlink" x="0px" y="0px"
	 viewBox="0 0 85 80" style="enable-background:new 0 0 85 80;" xml:space="preserve">
<g>
	<path d="M59.3,44.1c1.3-10.7,4.2-32.9-4.9-36.6c-3-1.2-10.4-4.8-17-2.9C24,8.2,23,26.8,23,26.8s-1.5,29.6,0.8,37.4S36.3,74,36.3,74
		c1-29.5,0.3-28.5,0.2-28.8c-7.8-4.2-9.1-17.7-9.1-17.7s8.8-0.7,14.2-0.3c5.4,0.4,14.2-0.3,14.2-0.3s0.6,4.8-1.4,9.3
		c-1.4,3.2-5,6.6-7,8.3L59.3,44.1z"/>
</g>
</svg>
