<?xml version="1.0" encoding="utf-8"?>
<!-- Generator: Adobe Illustrator 21.1.0, SVG Export Plug-In . SVG Version: 6.00 Build 0)  -->
<svg version="1.1" id="Layer_1" xmlns="http://www.w3.org/2000/svg" xmlns:xlink="http://www.w3.org/1999/xlink" x="0px" y="0px"
	 viewBox="0 0 85 80" style="enable-background:new 0 0 85 80;" xml:space="preserve">
<g>
	<path d="M53.9,19.3c5,0,9.1-4.1,9.1-9.1s-4.1-9.1-9.1-9.1s-9.1,4.1-9.1,9.1C44.8,15.2,48.9,19.3,53.9,19.3z"/>
	<path d="M61.5,21.4H59c-0.9,0-1.7,0.5-2,1.3l-3,7.4l-3.1-7.4c-0.3-0.8-1.1-1.3-2-1.3h-2.5c-4,0-7.3,3.3-7.3,7.3v25.8
		c0,1.2,1,2.2,2.2,2.2h1.2v20.1c0,1.2,1,2.2,2.2,2.2h18.6c1.2,0,2.2-1,2.2-2.2V56.7h1.2c1.2,0,2.2-1,2.2-2.2V28.7
		C68.8,24.7,65.5,21.4,61.5,21.4z"/>
	<path d="M32.1,3.2c0-1.2-1-2.2-2.2-2.2H18.4c-1.2,0-2.2,1-2.2,2.2v73.7c0,1.2,1,2.2,2.2,2.2h11.5c1.2,0,2.2-1,2.2-2.2
		s-1-2.2-2.2-2.2h-9.4v-6.1h9.4c1.2,0,2.2-1,2.2-2.2s-1-2.2-2.2-2.2h-9.4v-6.4H25c1.2,0,2.2-1,2.2-2.2s-1-2.2-2.2-2.2h-4.5v-6h9.4
		c1.2,0,2.2-1,2.2-2.2s-1-2.2-2.2-2.2h-9.4v-6.4H25c1.2,0,2.2-1,2.2-2.2s-1-2.2-2.2-2.2h-4.5v-6h9.4c1.2,0,2.2-1,2.2-2.2
		s-1-2.2-2.2-2.2h-9.4v-6.4H25c1.2,0,2.2-1,2.2-2.2S26.2,11,25,11h-4.5V5.3h9.4v0.1C31.1,5.3,32.1,4.4,32.1,3.2z"/>
</g>
</svg>
