<svg xmlns="http://www.w3.org/2000/svg" xmlns:xlink="http://www.w3.org/1999/xlink" viewBox="0 0 689.60815 742.97862"><defs><style>.cls-1{fill:none;}.cls-2{isolation:isolate;}.cls-3{fill:#61116a;}.cls-4{fill:url(#linear-gradient);}.cls-10,.cls-5{fill:#c035a0;}.cls-14,.cls-5{opacity:0.17;}.cls-11,.cls-14,.cls-5,.cls-8{mix-blend-mode:multiply;}.cls-6{fill:#808bfe;}.cls-7{fill:#fff;}.cls-8{fill:#e1e1e1;}.cls-11,.cls-9{fill:#fafafa;}.cls-12{clip-path:url(#clip-path);}.cls-13{fill:url(#linear-gradient-2);}.cls-14{fill:#633580;}.cls-15{fill:url(#linear-gradient-3);}.cls-16{fill:url(#linear-gradient-4);}.cls-17{clip-path:url(#clip-path-2);}.cls-18{fill:url(#linear-gradient-5);}.cls-19{fill:url(#linear-gradient-6);}.cls-20{fill:url(#linear-gradient-7);}.cls-21{fill:#f2f2f2;}.cls-22{fill:#eb3386;}.cls-23{fill:url(#linear-gradient-8);}.cls-24{fill:url(#linear-gradient-9);}.cls-25{fill:url(#radial-gradient);}.cls-26{fill:url(#radial-gradient-2);}</style><linearGradient id="linear-gradient" x1="-2.08554" y1="162.92226" x2="592.20074" y2="162.92226" gradientTransform="matrix(0.9993, 0.03737, -0.03737, 0.9993, 3.96519, 48.26234)" gradientUnits="userSpaceOnUse"><stop offset="0" stop-color="#c035a0"/><stop offset="1" stop-color="#eb3386"/></linearGradient><clipPath id="clip-path" transform="translate(109.58765 84.11937)"><path class="cls-1" d="M172.55015,83.56034a27.23239,27.23239,0,0,1-11.80888-5.00768,28.38908,28.38908,0,0,1,24.23262-12.82544c8.36081.08848,16.10984,3.17872,15.60535,8.14219C200.57924,73.8694,199.19892,87.4499,172.55015,83.56034Z"/></clipPath><linearGradient id="linear-gradient-2" x1="189.44176" y1="-89.03243" x2="206.76933" y2="-89.03243" gradientTransform="translate(95.21088 -127.06879) rotate(90)" xlink:href="#linear-gradient"/><linearGradient id="linear-gradient-3" x1="193.26096" y1="-93.27893" x2="216.8316" y2="-93.27893" gradientTransform="translate(-28.47361 114.90121) rotate(12.5484)" xlink:href="#linear-gradient"/><linearGradient id="linear-gradient-4" x1="154.95944" y1="52.21078" x2="208.31148" y2="52.21078" gradientTransform="translate(8.78224 -18.8096) rotate(5.80362)" xlink:href="#linear-gradient"/><clipPath id="clip-path-2" transform="translate(109.58765 84.11937)"><path class="cls-1" d="M99.25578,76.11069a27.23239,27.23239,0,0,0,12.57494-2.52931,28.38908,28.38908,0,0,0-21.15656-17.4388c-8.20763-1.59553-16.42-.12761-16.92444,4.83585C73.74973,60.97844,72.3694,74.55894,99.25578,76.11069Z"/></clipPath><linearGradient id="linear-gradient-5" x1="-2802.77655" y1="264.84358" x2="-2785.44898" y2="264.84358" gradientTransform="matrix(-1, 0, 0, 1, -2702.21311, -203.19264)" xlink:href="#linear-gradient"/><linearGradient id="linear-gradient-6" x1="-2797.38206" y1="260.41078" x2="-2773.81142" y2="260.41078" gradientTransform="matrix(-0.99987, 0.01643, 0.01643, 0.99987, -2706.18639, -157.26176)" xlink:href="#linear-gradient"/><linearGradient id="linear-gradient-7" x1="-2856.52559" y1="52.21078" x2="-2803.17355" y2="52.21078" gradientTransform="matrix(-0.99487, -0.10112, -0.10112, 0.99487, -2715.77752, -295.73411)" xlink:href="#linear-gradient"/><linearGradient id="linear-gradient-8" x1="115.01974" y1="-100.04809" x2="256.45435" y2="-100.04809" gradientTransform="translate(-13.46047 66.18562) rotate(10.06904)" xlink:href="#linear-gradient"/><linearGradient id="linear-gradient-9" x1="91.26785" y1="3.23077" x2="234.99449" y2="3.23077" gradientTransform="translate(8.78224 -18.8096) rotate(5.80362)" xlink:href="#linear-gradient"/><radialGradient id="radial-gradient" cx="217.59648" cy="552.48346" r="137.15132" gradientTransform="translate(-51.86602 298.54285) rotate(-10.70622) scale(1 0.54224)" gradientUnits="userSpaceOnUse"><stop offset="0.42903" stop-color="#fff" stop-opacity="0"/><stop offset="0.45901" stop-color="#fff" stop-opacity="0.01934"/><stop offset="0.49439" stop-color="#fff" stop-opacity="0.07558"/><stop offset="0.53248" stop-color="#fff" stop-opacity="0.16879"/><stop offset="0.57253" stop-color="#fff" stop-opacity="0.29918"/><stop offset="0.61407" stop-color="#fff" stop-opacity="0.46677"/><stop offset="0.6569" stop-color="#fff" stop-opacity="0.67187"/><stop offset="0.69995" stop-color="#fff" stop-opacity="0.90947"/><stop offset="0.71505" stop-color="#fff"/></radialGradient><radialGradient id="radial-gradient-2" cx="-2661.24047" cy="552.48346" r="137.15132" gradientTransform="matrix(-0.98259, -0.18577, -0.10073, 0.5328, -2513.34406, -236.26822)" xlink:href="#radial-gradient"/></defs><title>model</title><g class="cls-2"><g id="Layer_1" data-name="Layer 1"><path class="cls-3" d="M170.718,658.85925h90.47632c158.377-22.02216,280.30579-157.96051,280.30579-322.4,0-179.79291-145.751-325.54388-325.54382-325.54388s-325.54395,145.751-325.54395,325.54388C-109.58765,500.89874,12.34119,636.8371,170.718,658.85925Z" transform="translate(109.58765 84.11937)"/><path class="cls-4" d="M72.96129-60.5261S15.97976-40.78467,4.22685,22.83063,29.42,184.691,34.0852,227.04792-8.37557,359.81892,70.57091,400.2668,357.24818,442.234,387.22557,476.16362s113.20983,69.85087,166.8605,49.98487,16.09841-96.26136-40.4012-131.18286,5.48438-146.65231-51.671-205.81418c-43.0666-44.57847-108.10936-58.04559-122.8355-82.031S268.82483-159.43864,72.96129-60.5261Z" transform="translate(109.58765 84.11937)"/><path class="cls-5" d="M81.004-21.4508S37.06311-19.68615,29.2397,43.295,71.72024,217.51918,68.52562,243.17787s-19.60136,95.34921-1.53486,110.08566S388.84979,481.18207,424.835,504.83019c64.41052,42.32815,85.11581-10.01617,71.9498-33.94324s-44.86456-11.83284-84.53763-78.93364c-6.75388-11.42314-19.11364-115.54479-64.17482-143.00812s-53.58979-27.16318-99.80719-88.388c-26.09285-34.56553-13.8247-163.48815-63.67728-187.22488C98.91446-67.46,81.004-21.4508,81.004-21.4508Z" transform="translate(109.58765 84.11937)"/><path class="cls-6" d="M483.06006,658.85925C473.7688,627.61511,412.302,423.9552,380.02466,394.08289c-17.75024-16.42767-153.8186-71.82526-153.8186-71.82526L98.93213,578.57367l-16.7749-248.4342-2.21484-3.64014c-18.61084,22.90424-129.86169,51.45825-132.50006,95.5-6.86859,114.65631-17.62738,198.78876-11.37555,236.85992Z" transform="translate(109.58765 84.11937)"/><path class="cls-7" d="M226.206,324.49937c-29.26214-19.5-59.2849-116.39945-29.67634-175.94013,8.48645-17.06464-97.59745,2.78848-97.59745,2.78848s24.87957,134.34368,1.44942,157.40748c-4.68729,4.61381-7.12727,12.80328-20.43931,17.74417-16.61566,6.16706-5.91409,273.32567,39.5,273.5C162.36972,600.16416,240.14693,333.78947,226.206,324.49937Z" transform="translate(109.58765 84.11937)"/><path class="cls-8" d="M98.9322,151.34772l98.01165-4.85355s-28.22278,71.426-53.495,78.64471c-26.936,7.694-29.19629,16.01219-33.14926,26.31305C110.29963,251.45193,106.08425,181.3016,98.9322,151.34772Z" transform="translate(109.58765 84.11937)"/><path class="cls-9" d="M227.7695,66.15838s10.57518-7.09568,13.96836,2.18223c2.52813,6.91262-1.59707,27.96415-6.39449,37.51769-3.65642,7.28137-14.4564,11.12771-15.57775-1.25458S227.7695,66.15838,227.7695,66.15838Z" transform="translate(109.58765 84.11937)"/><path class="cls-7" d="M232.52354,39.23263c.25663-11.62243-3.362-36.03229-16.51239-49.34066C200.92689-25.3735,189.7673-34.73578,151.44929-38.79048l.00069-.00668c-.12653-.01312-.24517-.022-.37116-.03477-.126-.01306-.24393-.02847-.37049-.04131l-.00069.00668c-38.34324-3.80872-49.45532,3.83617-69.04031,14.97839-12.34338,7.02234-24.0772,33.52849-26.1854,44.961-1.86887,10.13439-3.04681,23.44844-3.38739,37.80134-.82975,34.96713,3.31045,76.1001,14.53794,92.44327,8.87146,12.91368,41.80091,54.14626,58.833,57.20873l-.00632.06157c.11475.01177.25463-.00018.374.00732.11839.01689.25293.057.36768.06875l.00632-.06157c17.299.459,57.64854-33.25709,68.95688-44.10086,14.83825-14.2286,27.62651-56.097,33.67129-91.34378A241.34979,241.34979,0,0,0,232.52354,39.23263Z" transform="translate(109.58765 84.11937)"/><path class="cls-10" d="M273.94607,72.89466" transform="translate(109.58765 84.11937)"/><path class="cls-11" d="M122.29993-39.44117s57.7717,13.80127,75.69212,32.17848c18.96106,19.44437,38.76984,33.51053,33.8086,77.66843,0,0,1.01388,5.56086,2.6078-18.25092,1.47992-22.10871-1.4319-45.86633-8.30893-53.62269C198.8945-32.15146,186.85706-41.132,122.29993-39.44117Z" transform="translate(109.58765 84.11937)"/><path class="cls-11" d="M224.30476,98.86228s-39.13135,23.83316-40.16866,36.12951c-3.78778,44.90053-14.33672,56.29208-8.97668,51.72682,23.38681-19.91905,35.54171-8.29545,49.84614-86.4722" transform="translate(109.58765 84.11937)"/><path class="cls-11" d="M51.64129,82.62579s33.53584,31.21906,32.07789,43.47266c-5.32374,44.74442,2.71747,58.02547-1.61441,52.47513-18.9008-24.21717-33.14582-15.27686-31.42843-94.733" transform="translate(109.58765 84.11937)"/><g class="cls-12"><path class="cls-11" d="M157.44773,77.81958s14.56414-21.34017,43.81638-6.0044S158.21132,92.88845,157.44773,77.81958Z" transform="translate(109.58765 84.11937)"/><circle class="cls-13" cx="184.24332" cy="71.03676" r="8.66378" transform="translate(184.46159 319.56464) rotate(-77.4516)"/><circle class="cls-14" cx="184.24332" cy="71.03676" r="4.7692" transform="translate(184.46159 319.56464) rotate(-77.4516)"/><path class="cls-11" d="M160.81979,80.79343s17.72072-16.50551,39.50905-8.06738-1.30624-7.18162-1.30624-7.18162S158.5734,60.34972,160.81979,80.79343Z" transform="translate(109.58765 84.11937)"/><path class="cls-11" d="M159.69726,75.06465s20.4484,18.24169,41.86824-1.67828l-.07293,5.25689S172.70219,100.26254,159.69726,75.06465Z" transform="translate(109.58765 84.11937)"/></g><path class="cls-11" d="M179.39245,64.45046c19.52957-4.08637,21.18679,9.41894,21.18679,9.41894-3.52074-1.42324-9.74676-7.21955-15.7264-6.95121-18.32911.82254-24.11157,11.63446-24.11157,11.63446S162.26264,68.03471,179.39245,64.45046Z" transform="translate(109.58765 84.11937)"/><path class="cls-15" d="M180.29219,66.49c9.32715-.8799,18.75067,3.35892,20.6483,6.83281,0,0,2.717-1.45585,2.40769-2.21255C200.091,63.14241,180.29219,66.49,180.29219,66.49Z" transform="translate(109.58765 84.11937)"/><path class="cls-16" d="M157.28032,52.61626s32.08982-8.92453,53.673-.45311" transform="translate(109.58765 84.11937)"/><g class="cls-17"><path class="cls-11" d="M115.20441,73.526s-9.97263-23.83409-41.71224-14.69753S111.42456,88.133,115.20441,73.526Z" transform="translate(109.58765 84.11937)"/><circle class="cls-18" cx="91.89965" cy="61.65094" r="8.66378" transform="translate(108.58739 85.6372) rotate(-0.94116)"/><circle class="cls-14" cx="91.89965" cy="61.65094" r="4.7692" transform="translate(108.58739 85.6372) rotate(-0.94116)"/><path class="cls-11" d="M111.303,75.76053S97.26557,56.02712,74.225,59.90885s2.72448-6.77194,2.72448-6.77194S117.61672,56.18688,111.303,75.76053Z" transform="translate(109.58765 84.11937)"/><path class="cls-11" d="M113.55519,70.37476S89.8547,84.12915,72.88084,60.30684l-.98626,5.16406S95.74635,92.44074,113.55519,70.37476Z" transform="translate(109.58765 84.11937)"/></g><path class="cls-11" d="M96.39835,56.01493c-18.308-7.93219-22.64862,4.9635-22.64862,4.9635,3.73509-.68575,11-5.11084,16.80339-3.64487,17.78878,4.49356,21.27761,16.24782,21.27761,16.24782S112.4567,62.97243,96.39835,56.01493Z" transform="translate(109.58765 84.11937)"/><path class="cls-19" d="M95.10665,57.83176c-8.95937-2.73854-19.043-.48243-21.60082,2.53861,0,0-2.36853-1.97275-1.91328-2.65173C76.38626,50.569,95.10665,57.83176,95.10665,57.83176Z" transform="translate(109.58765 84.11937)"/><path class="cls-20" d="M120.43935,48.87174S90.8014,33.67319,67.95517,37.62881" transform="translate(109.58765 84.11937)"/><path class="cls-11" d="M113.83687,120.941c.53572,1.491,6.07477,13.21821,15.7313,14.1616,10.12994.98964,17.34572-7.46891,19.35683-10.59524a69.59917,69.59917,0,0,0,3.14852-7.05057,5.87815,5.87815,0,0,1-6.44241,5.25363s-10.65308,4.47979-14.83384,4.00885c-4.0382-.45488-13.05-6.843-13.05-6.843a5.87815,5.87815,0,0,1-5.25363-6.44241A27.88279,27.88279,0,0,0,113.83687,120.941Z" transform="translate(109.58765 84.11937)"/><path class="cls-21" d="M152.07352,117.4568a5.42025,5.42025,0,0,1-.34372,2.37,6.76516,6.76516,0,0,1-.55887,1.12057,7.41965,7.41965,0,0,1-.80527.99194,7.5564,7.5564,0,0,1-1.00586.82965,6.80482,6.80482,0,0,1-1.18054.60553,7.56431,7.56431,0,0,1-1.29916.36221,8.03692,8.03692,0,0,1-1.36365.10269l.55441-.08286c-1.16675.56979-2.32135,1.0957-3.5,1.6105q-1.76738.75993-3.59665,1.3992a38.4941,38.4941,0,0,1-3.75629,1.12048c-.64667.15729-1.307.29019-1.9938.38678a11.711,11.711,0,0,1-2.2.1322l-.3075-.02313-.20267-.02274-.11688-.01849-.23376-.037-.31515-.0668a10.18814,10.18814,0,0,1-1.09494-.30841,17.37214,17.37214,0,0,1-1.91449-.7738,34.85456,34.85456,0,0,1-3.45883-1.88284,62.01909,62.01909,0,0,1-6.29178-4.46613l.54376.204a7.9832,7.9832,0,0,1-1.316-.37549,7.56839,7.56839,0,0,1-1.20026-.61713,6.92465,6.92465,0,0,1-1.0354-.831,7.55678,7.55678,0,0,1-.81827-1.0162,7.42175,7.42175,0,0,1-.58884-1.13464,6.69664,6.69664,0,0,1-.32172-1.21072,5.88275,5.88275,0,0,1-.06171-1.22,5.99513,5.99513,0,0,1,.20392-1.17133,8.05858,8.05858,0,0,0,.19812,1.13342,7.57139,7.57139,0,0,0,.38013,1.04144,6.53664,6.53664,0,0,0,.55377.92075,6.22,6.22,0,0,0,.68469.78616,6.07474,6.07474,0,0,0,.807.61777,6.52124,6.52124,0,0,0,.87631.45551,5.62234,5.62234,0,0,0,.926.27069,5.98875,5.98875,0,0,0,.94281.08258l.2149.00354.32922.20062c1.05032.64,2.1427,1.26968,3.22992,1.87,1.08557.60892,2.17435,1.20441,3.26263,1.77744,1.09082.56656,2.18518,1.11191,3.27371,1.57941.5452.22592,1.08569.44223,1.60828.61a7.27523,7.27523,0,0,0,.728.19922l.14725.03415.23419.03406.11713.017.02927.00424c-.10983-.01392-.01859-.0033-.03778-.00613l.04123.00208.16461.01132a8.54787,8.54787,0,0,0,1.57462-.08334c.56372-.07562,1.1442-.1792,1.73022-.293,1.17191-.24377,2.35971-.54575,3.54886-.86935,1.18854-.32877,2.37936-.68085,3.57269-1.0394,1.19214-.35242,2.394-.73389,3.55975-1.12961l.35559-.1207.19919.03778a5.9344,5.9344,0,0,0,.94113.10846,5.62851,5.62851,0,0,0,.96225-.07968,6.71918,6.71918,0,0,0,.95093-.27,6.08261,6.08261,0,0,0,.91492-.44394,6.22581,6.22581,0,0,0,.82867-.63333,6.45046,6.45046,0,0,0,.72754-.79117,7.6182,7.6182,0,0,0,.58105-.9437A7.82394,7.82394,0,0,0,152.07352,117.4568Z" transform="translate(109.58765 84.11937)"/><path class="cls-22" d="M104.96163,158.10452c.36221-3.56364,7.78715-7.50474,17.45629-8.17672,2.03441-.14139,3.94873,2.0208,6.13289,2.2428,1.81911.18489,3.792-1.63932,5.46315-1.22508,9.87163,2.447,16.70047,9.3167,16.44971,11.78384,0,0-11.66967,13.56219-24.23471,12.28507S104.96163,158.10452,104.96163,158.10452Z" transform="translate(109.58765 84.11937)"/><path class="cls-7" d="M146.81634,162.35862S134.62227,165.73518,126.7,164.93s-19.18758-6.56619-19.18758-6.56619l19.652,1.99743Z" transform="translate(109.58765 84.11937)"/><path class="cls-23" d="M122.24365-40.16766s63.44455-3.16113,86.21579,48.13335c9.61406,21.65662,15.21811,22.44108,23.5424,29.25211,4.28164,3.50328,14.03856,8.71168,17.40849,13.66128,1.33881,1.96639-1.62424-10.86436-9.34617-21.25042-7.60519-10.22906-10.846-19.18622-14.64154-29.54C211.02439-39.188,140.96513-55.5286,122.24365-40.16766Z" transform="translate(109.58765 84.11937)"/><path class="cls-24" d="M102.12238-34.57181s59.52547-6.8064,90.282,40.137c11.37156,17.35629,17.8607,27.58691,26.66851,33.75994,4.53034,3.17512,14.64762,7.64341,18.37636,12.32866,1.48136,1.86136-1.29386-8.469-11.466-13.39315-11.47289-5.55386-25.29412-32.26888-38.14049-55.63477C167.68877-54.03166,119.64951-51.28265,102.12238-34.57181Z" transform="translate(109.58765 84.11937)"/><path class="cls-25" d="M148.94223,568.83964c20.0324,38.57743,140.03181,52.87487,140.03181-23.37815" transform="translate(109.58765 84.11937)"/><path class="cls-26" d="M114.57165,568.83964c-20.0324,38.57743-140.03181,52.87487-140.03181-23.37815" transform="translate(109.58765 84.11937)"/></g></g></svg>