<?xml version="1.0" encoding="utf-8"?>
<!-- Generator: Adobe Illustrator 21.1.0, SVG Export Plug-In . SVG Version: 6.00 Build 0)  -->
<svg version="1.1" id="Layer_1" xmlns="http://www.w3.org/2000/svg" xmlns:xlink="http://www.w3.org/1999/xlink" x="0px" y="0px"
	 viewBox="0 0 85 80" style="enable-background:new 0 0 85 80;" xml:space="preserve">
<style type="text/css">
	.st0{fill:#030104;}
</style>
<g>
	<path class="st0" d="M64.7,50.9c-0.2,0.9-0.6,1.5-1.7,1.3c-3.7-0.9-9.5-1.1-12.7-0.2c-1.3,0.2-1.7-0.2-2.4-1.7
		c-1.1-3.9-3-8.4-2.6-14c0.9-12.7,6.3-16.4,10.1-16.2S69.6,26.5,64.7,50.9z M48.3,58.4c0,0-0.6,2.2-1.1,5.8c-0.6,6,0.6,10.1,6.5,11
		c5,0.6,8.2-3,8.8-9.1c0.4-3.7,0.4-5.8,0.4-5.8L48.3,58.4z"/>
</g>
<g>
	<path class="st0" d="M29.3,6c3.9-0.2,9.3,3.2,10.1,16.2c0.4,5.8-1.5,10.1-2.6,13.8c-0.4,1.5-1.1,2.2-2.4,1.7
		c-3.5-0.9-9.1-0.4-12.7,0.4c-1.1,0.2-1.5-0.4-1.7-1.3C15.1,12.5,25.2,6.2,29.3,6z M21.8,46.3c0,0,0,2.4,0.4,5.8
		c0.6,6,3.9,9.7,8.8,9.1c5.8-0.9,7.1-5,6.5-11c-0.4-3.7-1.1-5.8-1.1-5.8L21.8,46.3z"/>
</g>
</svg>
